<?xml version="1.0" encoding="UTF-8"?>
<svg id="Layer_1" xmlns="http://www.w3.org/2000/svg" viewBox="0 0 227.72 67.18">
  <defs>
    <style>
      .cls-1 {
        fill: #d5af34;
      }
    </style>
  </defs>
  <path class="cls-1" d="M0,0h35.38c6.5,0,9.52.84,11.77,3.28,1.74,1.93,2.64,5.21,2.64,9.84,0,6.95-1.61,9.39-6.88,10.61,4.37.84,6.05,3.09,6.05,8.04v11.13h-5.15v-8.17c.13-7.4-1.74-9.2-9.2-9.14H5.15v17.31H0V0ZM33.39,21.55c8.81,0,11.06-1.74,11.06-8.68s-2.32-8.56-11.39-8.56H5.15v17.24h28.24Z"/>
  <path class="cls-1" d="M78.6,0l17.82,38.21L114.5,0h6.05l18.08,38.21L156.51,0h5.4l-20.26,42.91h-6.3L117.46,5.02l-17.95,37.89h-6.31L72.94,0h5.66Z"/>
  <path class="cls-1" d="M178.05,38.6L219.48,4.31h-39.69V0h47.22v4.31l-41.43,34.29h42.14v4.31h-49.67v-4.31Z"/>
  <g>
    <path class="cls-1" d="M9.3,57.29h8.07c1.48,0,2.17.19,2.69.75.4.44.6,1.19.6,2.25,0,1.58-.37,2.14-1.57,2.42,1,.19,1.38.7,1.38,1.83v2.54h-1.17v-1.86c.03-1.69-.4-2.1-2.1-2.08h-6.72v3.95h-1.17v-9.79ZM16.92,62.2c2.01,0,2.52-.4,2.52-1.98s-.53-1.95-2.6-1.95h-6.37v3.93h6.44Z"/>
    <path class="cls-1" d="M23.08,57.29h9.75v.98h-8.57v3.27h8.26v.92h-8.26v3.63h8.65v.98h-9.82v-9.79Z"/>
    <path class="cls-1" d="M35.5,57.29l4.92,8.92,4.93-8.92h1.31l-5.42,9.79h-1.64l-5.42-9.79h1.32Z"/>
    <path class="cls-1" d="M47.55,57.29l4.07,8.72,4.12-8.72h1.38l4.12,8.72,4.08-8.72h1.23l-4.62,9.79h-1.44l-4.08-8.65-4.1,8.65h-1.44l-4.62-9.79h1.29Z"/>
    <path class="cls-1" d="M79.47,58.08c.63.66.78,1.42.78,4.1s-.15,3.45-.78,4.11c-.75.78-1.5.9-5.52.9s-4.77-.12-5.52-.9c-.63-.66-.78-1.42-.78-4.09s.15-3.46.78-4.11c.75-.78,1.5-.9,5.58-.9s4.71.13,5.46.9ZM69.38,58.81c-.41.43-.51,1.13-.51,3.38s.1,2.94.51,3.36c.5.53,1.12.6,4.56.6s4.07-.09,4.57-.6c.41-.43.51-1.13.51-3.36s-.1-2.95-.51-3.38c-.46-.5-1.28-.6-4.51-.6s-4.15.1-4.62.6Z"/>
    <path class="cls-1" d="M82.7,57.29h8.07c1.48,0,2.17.19,2.69.75.4.44.6,1.19.6,2.25,0,1.58-.37,2.14-1.57,2.42,1,.19,1.38.7,1.38,1.83v2.54h-1.17v-1.86c.03-1.69-.4-2.1-2.1-2.08h-6.72v3.95h-1.17v-9.79ZM90.32,62.2c2.01,0,2.52-.4,2.52-1.98s-.53-1.95-2.6-1.95h-6.37v3.93h6.44Z"/>
    <path class="cls-1" d="M100.89,61.88l-4.93-4.59h1.63l4.29,4.02,4.3-4.02h1.63l-4.93,4.59,5.42,5.2h-1.62l-4.8-4.62-4.79,4.62h-1.61l5.42-5.2Z"/>
    <path class="cls-1" d="M108.48,66.09l9.45-7.82h-9.06v-.98h10.77v.98l-9.45,7.82h9.62v.98h-11.33v-.98Z"/>
    <path class="cls-1" d="M125.33,57.29h7.62c2.16,0,3.24.4,3.83,1.42.44.72.65,1.88.65,3.46s-.21,2.76-.65,3.48c-.59,1.03-1.67,1.42-3.83,1.42h-7.62v-9.79ZM133.04,66.09c1.38,0,2.28-.32,2.67-.95.34-.56.5-1.47.5-2.91,0-1.51-.18-2.54-.53-3.08-.4-.6-1.23-.88-2.73-.88h-6.44v7.82h6.53Z"/>
    <path class="cls-1" d="M139.77,57.29h9.75v.98h-8.57v3.27h8.26v.92h-8.26v3.63h8.65v.98h-9.82v-9.79Z"/>
    <path class="cls-1" d="M152.56,64.02v.26c0,.98.21,1.38.84,1.58.57.19,1.66.28,3.42.28,3.83,0,4.52-.29,4.52-1.92,0-.82-.25-1.19-.91-1.38-.65-.18-.7-.18-5.08-.21-1.78-.01-2.54-.15-3.14-.54-.59-.4-.82-.94-.82-1.91,0-1.47.53-2.3,1.69-2.64.84-.25,2.13-.37,4.14-.37,2.26,0,3.42.16,4.1.59.72.44.94.95.98,2.32h-1.14c-.01-.78-.15-1.13-.47-1.38-.46-.35-1.47-.5-3.45-.5-3.86,0-4.61.31-4.61,1.88,0,.68.19,1.06.6,1.25.51.23.95.26,3.73.28,3.11.01,3.79.07,4.49.41.79.38,1.12,1.04,1.12,2.26,0,1.35-.46,2.16-1.42,2.52-.72.26-1.83.37-4.1.37-2.38,0-3.49-.1-4.29-.37-.88-.31-1.37-1.06-1.37-2.11v-.67h1.17Z"/>
    <path class="cls-1" d="M164.89,57.29h1.17v9.79h-1.17v-9.79Z"/>
    <path class="cls-1" d="M180.83,62.25q0,1.6-.06,2.22c-.12,1.28-.56,2.04-1.39,2.38-.63.26-1.53.34-4.51.34-4.08,0-4.83-.12-5.58-.9-.63-.66-.78-1.42-.78-4.09s.15-3.45.78-4.11c.76-.79,1.45-.9,5.93-.9,3.01,0,3.8.1,4.51.59.68.46.95,1.12,1,2.39h-1.16c-.03-.92-.09-1.19-.37-1.44-.47-.46-.9-.51-3.57-.51-3.86,0-4.7.07-5.21.44-.56.41-.69,1.07-.69,3.54,0,2.23.1,2.95.51,3.36.47.5,1.19.6,4.12.6,3.82,0,4.33-.06,4.83-.62.37-.4.44-.76.48-2.3h-5.24v-.98h6.38Z"/>
    <path class="cls-1" d="M183.23,57.29h1.89l9.25,8.95v-8.95h1.17v9.79h-1.89l-9.25-8.95v8.95h-1.17v-9.79Z"/>
    <path class="cls-1" d="M199.08,64.02v.26c0,.98.21,1.38.84,1.58.57.19,1.66.28,3.42.28,3.83,0,4.52-.29,4.52-1.92,0-.82-.25-1.19-.91-1.38-.65-.18-.7-.18-5.08-.21-1.78-.01-2.54-.15-3.14-.54-.59-.4-.82-.94-.82-1.91,0-1.47.53-2.3,1.69-2.64.84-.25,2.13-.37,4.14-.37,2.26,0,3.42.16,4.09.59.72.44.94.95.98,2.32h-1.14c-.01-.78-.15-1.13-.47-1.38-.46-.35-1.47-.5-3.45-.5-3.86,0-4.61.31-4.61,1.88,0,.68.19,1.06.6,1.25.51.23.95.26,3.73.28,3.11.01,3.79.07,4.49.41.79.38,1.12,1.04,1.12,2.26,0,1.35-.46,2.16-1.42,2.52-.72.26-1.83.37-4.1.37-2.38,0-3.49-.1-4.29-.37-.88-.31-1.37-1.06-1.37-2.11v-.67h1.17Z"/>
  </g>
</svg>